<?xml version="1.0" encoding="UTF-8"?>
<svg width="26px" height="26px" viewBox="0 0 26 26" version="1.1" xmlns="http://www.w3.org/2000/svg" xmlns:xlink="http://www.w3.org/1999/xlink">
    <title>60dbf2aaf4673e183425429d_linkedin</title>
    <g id="Page-1" stroke="none" stroke-width="1" fill="none" fill-rule="evenodd">
        <g id="60dbf2aaf4673e183425429d_linkedin" fill="#000000" fill-rule="nonzero">
            <path d="M22.1509,22.1563 L18.3008,22.1563 L18.3008,16.1233 C18.3008,14.6846 18.2715,12.8332 16.2944,12.8332 C14.287,12.8332 13.9804,14.3986 13.9804,16.0171 L13.9804,22.1563 L10.1303,22.1563 L10.1303,9.75 L13.8288,9.75 L13.8288,11.4411 L13.8786,11.4411 C14.3953,10.4661 15.652,9.43692 17.5294,9.43692 C21.4305,9.43692 22.152,12.0044 22.152,15.3465 L22.152,22.1563 L22.1509,22.1563 Z M5.78175,8.05242 C4.54242,8.05242 3.54683,7.04925 3.54683,5.81533 C3.54683,4.5825 4.5435,3.58042 5.78175,3.58042 C7.01675,3.58042 8.01775,4.5825 8.01775,5.81533 C8.01775,7.04925 7.01567,8.05242 5.78175,8.05242 Z M7.71225,22.1563 L3.85125,22.1563 L3.85125,9.75 L7.71225,9.75 L7.71225,22.1563 Z M24.0771,0 L1.91858,0 C0.858,0 0,0.8385 0,1.87308 L0,24.1269 C0,25.1626 0.858,26 1.91858,26 L24.0738,26 C25.1333,26 26,25.1626 26,24.1269 L26,1.87308 C26,0.8385 25.1333,0 24.0738,0 L24.0771,0 Z" id="Shape"></path>
        </g>
    </g>
</svg>